<svg xmlns="http://www.w3.org/2000/svg" version="1.1" xmlns:xlink="http://www.w3.org/1999/xlink" xmlns:svgjs="http://svgjs.dev/svgjs" width="1000" height="623" viewBox="0 0 1000 623"><g transform="matrix(1,0,0,1,-0.6060606060606233,0.2522267206477409)"><svg viewBox="0 0 396 247" data-background-color="#ffffff" preserveAspectRatio="xMidYMid meet" height="623" width="1000" xmlns="http://www.w3.org/2000/svg" xmlns:xlink="http://www.w3.org/1999/xlink"><g id="tight-bounds" transform="matrix(1,0,0,1,0.2400000000000091,-0.09999999999999432)"><svg viewBox="0 0 395.52 247.2" height="247.2" width="395.52"><g><svg></svg></g><g><svg viewBox="0 0 395.52 247.2" height="247.2" width="395.52"><g><g><path d="M176.376 182.641c-0.717 2.331-1.076 4.662-1.076 6.994 0 1.973 0.269 3.622 0.807 4.949 0.538 1.363 1.13 2.439 1.775 3.228 0.61 0.825 1.004 1.417 1.184 1.775 1.793 1.793 2.69 3.586 2.69 5.38 0 0.359-0.179 1.255-0.538 2.69-0.717 2.51-2.277 4.25-4.681 5.218-2.439 1.004-6.169 1.506-11.189 1.506h-63.749c-3.766 0-6.671-0.628-8.715-1.883-2.08-1.255-3.12-2.959-3.12-5.11 0-1.076 0.269-2.242 0.807-3.497 0.538-1.435 1.309-2.564 2.313-3.389 0.968-0.789 2.349-1.721 4.142-2.798 2.869-1.614 5.2-3.407 6.994-5.379 1.793-1.973 3.317-5.2 4.573-9.684l6.993-23.132h-41.961l-7.262 15.332c-3.048 6.635-4.573 11.835-4.573 15.601 0 2.152 0.359 3.891 1.076 5.218 0.717 1.363 1.793 2.762 3.228 4.196 1.255 1.435 2.116 2.654 2.582 3.658 0.43 0.968 0.466 2.259 0.107 3.874-0.717 2.69-2.188 4.519-4.411 5.487-2.259 1.004-5.81 1.506-10.652 1.506h-40.078c-4.124 0-7.263-0.771-9.414-2.313-2.152-1.506-3.228-3.515-3.228-6.025 0-2.869 1.022-5.164 3.066-6.886 2.08-1.686 5.182-3.515 9.307-5.487 5.38-2.69 9.683-5.344 12.911-7.962 3.228-2.582 6.007-6.205 8.339-10.867l8.429-17.474 140.609 0zM82.501 75.587c7.352-15.422 16.013-26.575 25.984-33.462 9.934-6.922 23.061-10.383 39.379-10.382 18.291 0 32.457 3.712 42.499 11.136 10.042 7.46 15.063 17.825 15.063 31.094 0 5.134-0.765 10.421-2.294 15.861h-66.595l1.375-4.564c0.717-2.152 1.076-4.393 1.076-6.724 0-3.407-0.932-5.971-2.798-7.693-1.901-1.686-4.555-2.528-7.962-2.529-4.304 0-7.98 1.255-11.028 3.766-3.048 2.51-6.097 6.994-9.145 13.449l-2.013 4.294-30.413 0zM328.189 37.23c8.536 2.439 17.197 6.258 25.984 11.459l6.186-5.111c4.304-3.407 7.836-5.738 10.598-6.994 2.797-1.255 5.989-1.883 9.576-1.882 4.304 0 7.711 0.932 10.221 2.797 2.51 1.901 3.766 4.644 3.766 8.231 0 1.435-0.269 2.959-0.807 4.573l-11.297 37.119c-0.249 0.853-0.51 1.657-0.785 2.412l-28.66 0c-2.257-2.444-4.905-5.49-7.944-9.137-6.276-7.173-11.961-12.248-17.053-15.224-5.129-2.941-10.383-4.411-15.762-4.411-3.945 0-7.263 1.291-9.953 3.873-2.69 2.618-4.035 5.81-4.034 9.576 0 4.304 2.152 8.285 6.455 11.943 1.225 1.051 2.645 2.178 4.262 3.38l-74.632 0c0.3-5.077 1.251-10.095 2.856-15.054 3.766-12.373 11.477-22.325 23.132-29.857 11.656-7.531 25.015-11.297 40.078-11.297 10.042 0 19.313 1.201 27.813 3.604zM367.353 171.613c-4.304 14.346-12.642 25.23-25.015 32.655-12.373 7.46-26.808 11.19-43.306 11.189-12.373 0-22.774-1.435-31.202-4.303-8.428-2.869-17.035-7.711-25.823-14.525l-9.683 8.069c-4.483 3.766-8.159 6.312-11.028 7.639-2.869 1.363-6.097 2.044-9.683 2.044-4.124 0-7.406-0.986-9.845-2.959-2.403-1.973-3.604-4.662-3.605-8.069 0-1.793 0.359-3.676 1.076-5.649l13.181-40.078c0.027-0.087 0.054-0.174 0.08-0.259h34.303c1.673 2.113 3.481 4.531 5.426 7.253 5.738 8.249 11.082 13.987 16.031 17.215 4.913 3.228 10.777 4.842 17.591 4.841 4.842 0 8.554-0.771 11.136-2.313 2.618-1.506 4.465-3.963 5.541-7.37 0.359-0.897 0.538-2.242 0.538-4.035 0-4.304-2.062-8.249-6.186-11.835-1.351-1.175-2.943-2.427-4.776-3.756h77.882c-0.223 4.749-1.101 9.498-2.633 14.246z" fill="#010c80" fill-rule="nonzero" stroke="none" stroke-width="1" stroke-linecap="butt" stroke-linejoin="miter" stroke-miterlimit="10" stroke-dasharray="" stroke-dashoffset="0" font-family="none" font-weight="none" font-size="none" text-anchor="none" style="mix-blend-mode: normal" data-fill-palette-color="tertiary"></path></g></g><g transform="matrix(1,0,0,1,0,97.46186726659167)"><svg viewBox="0 0 395.52 52.276265466816646" height="52.276265466816646" width="395.52"><g><svg viewBox="0 0 395.52 52.276265466816646" height="52.276265466816646" width="395.52"><g><svg viewBox="0 0 395.52 52.276265466816646" height="52.276265466816646" width="395.52"><g><svg viewBox="0 0 395.52 52.276265466816646" height="52.276265466816646" width="395.52"><g><svg viewBox="0 0 395.52 52.276265466816646" height="52.276265466816646" width="395.52"><g><svg viewBox="0 0 395.52 52.276265466816646" height="52.276265466816646" width="395.52"><g transform="matrix(1,0,0,1,0,0)"><svg width="395.52" viewBox="-2.05 -37.5 355.57 47" height="52.276265466816646" data-palette-color="#010c80"><path d="M35.45-22.9L30.55-5.9Q30.35-5.25 30.35-4.6L30.35-4.6Q30.35-4.05 30.5-3.68 30.65-3.3 30.83-3.08 31-2.85 31.05-2.75L31.05-2.75Q31.55-2.25 31.55-1.75L31.55-1.75Q31.55-1.65 31.45-1.25L31.45-1.25Q31.25-0.55 30.58-0.28 29.9 0 28.5 0L28.5 0 16.65 0Q15.6 0 15.03-0.35 14.45-0.7 14.45-1.3L14.45-1.3Q14.45-1.6 14.6-1.95L14.6-1.95Q14.75-2.35 15.03-2.58 15.3-2.8 15.8-3.1L15.8-3.1Q16.6-3.55 17.1-4.1 17.6-4.65 17.95-5.9L17.95-5.9 19.25-10.2 11.45-10.2 10.1-7.35Q9.25-5.5 9.25-4.45L9.25-4.45Q9.25-3.85 9.45-3.48 9.65-3.1 10.05-2.7L10.05-2.7Q10.4-2.3 10.53-2.02 10.65-1.75 10.55-1.3L10.55-1.3Q10.35-0.55 9.73-0.28 9.1 0 7.75 0L7.75 0 0.3 0Q-0.85 0-1.45-0.43-2.05-0.85-2.05-1.55L-2.05-1.55Q-2.05-2.35-1.48-2.83-0.9-3.3 0.25-3.85L0.25-3.85Q1.75-4.6 2.65-5.33 3.55-6.05 4.2-7.35L4.2-7.35 13.1-25.8Q15.15-30.1 17.93-32.02 20.7-33.95 25.25-33.95L25.25-33.95Q30.35-33.95 33.15-31.88 35.95-29.8 35.95-26.1L35.95-26.1Q35.95-24.55 35.45-22.9L35.45-22.9ZM13.75-15.2L20.75-15.2 23.4-24Q23.6-24.6 23.6-25.25L23.6-25.25Q23.6-26.2 23.08-26.68 22.55-27.15 21.6-27.15L21.6-27.15Q20.4-27.15 19.55-26.45 18.7-25.75 17.85-23.95L17.85-23.95 13.75-15.2ZM68.9-16.75L65.85-6.9Q65.75-6.7 65.75-6.3L65.75-6.3Q65.75-5.95 65.92-5.75 66.1-5.55 66.4-5.55L66.4-5.55Q67-5.55 67.42-6.08 67.85-6.6 68-6.6L68-6.6Q68.25-6.6 68.4-6.28 68.55-5.95 68.55-5.5L68.55-5.5Q68.6-4.05 67.6-2.68 66.6-1.3 64.67-0.43 62.75 0.45 60.05 0.45L60.05 0.45Q56.75 0.45 54.8-1.07 52.85-2.6 52.8-5.15L52.8-5.15Q52.8-7 53.7-9.3L53.7-9.3 56.45-16.5Q56.7-17.15 56.7-17.55L56.7-17.55Q56.7-18.2 56.27-18.57 55.85-18.95 55.25-18.95L55.25-18.95Q54.15-18.95 53.15-17.93 52.15-16.9 51.7-15.4L51.7-15.4 48.6-5.2Q48.4-4.65 48.4-4.15L48.4-4.15Q48.4-3.55 48.65-3.18 48.9-2.8 49.35-2.4L49.35-2.4Q49.7-2.1 49.85-1.85 50-1.6 49.9-1.25L49.9-1.25Q49.7-0.6 48.95-0.3 48.2 0 46.6 0L46.6 0 35.2 0Q33.9 0 33.32-0.43 32.75-0.85 32.9-1.55L32.9-1.55Q33.1-2.15 33.95-2.6L33.95-2.6Q34.7-3 35.2-3.55 35.7-4.1 36.05-5.3L36.05-5.3 40.5-19.75Q40.6-20 40.6-20.45L40.6-20.45Q40.6-21 40.37-21.3 40.15-21.6 39.65-22.05L39.65-22.05Q39.15-22.45 38.95-22.75 38.75-23.05 38.9-23.55L38.9-23.55Q39.2-24.7 42.05-25.58 44.9-26.45 48-26.45L48-26.45Q50.5-26.45 51.95-25.08 53.4-23.7 53.25-21.25L53.25-21.25Q55.3-24.2 57.6-25.33 59.9-26.45 62.6-26.45L62.6-26.45Q65.65-26.45 67.52-24.6 69.4-22.75 69.4-19.8L69.4-19.8Q69.4-18.25 68.9-16.75L68.9-16.75ZM83.7-26.45Q86.6-26.45 87.95-25.35 89.3-24.25 89.3-22.35L89.3-22.35Q89.3-21.2 88.95-20.15L88.95-20.15 84.35-5.2Q84.2-4.6 84.2-4.15L84.2-4.15Q84.2-3.5 84.45-3.13 84.7-2.75 85.15-2.4L85.15-2.4Q85.5-2.05 85.65-1.83 85.8-1.6 85.7-1.25L85.7-1.25Q85.45-0.6 84.7-0.3 83.95 0 82.4 0L82.4 0 71 0Q69.7 0 69.1-0.43 68.5-0.85 68.7-1.55L68.7-1.55Q68.9-2.15 69.75-2.6L69.75-2.6Q70.5-3 71-3.55 71.5-4.1 71.85-5.3L71.85-5.3 76.2-19.75Q76.35-20.2 76.35-20.5L76.35-20.5Q76.35-21.05 76.1-21.38 75.85-21.7 75.35-22.05L75.35-22.05Q74.85-22.45 74.65-22.75 74.45-23.05 74.6-23.55L74.6-23.55Q74.9-24.7 77.75-25.58 80.6-26.45 83.7-26.45L83.7-26.45ZM87.05-37.5Q89-37.5 90.3-36.23 91.6-34.95 91.6-33.1L91.6-33.1Q91.6-31.8 90.92-30.55 90.25-29.3 89.02-28.53 87.8-27.75 86.3-27.75L86.3-27.75Q84.4-27.75 83.12-29.03 81.85-30.3 81.8-32.2L81.8-32.2Q81.8-33.45 82.45-34.68 83.1-35.9 84.3-36.7 85.5-37.5 87.05-37.5L87.05-37.5ZM139.59-16.75L136.54-6.9Q136.44-6.7 136.44-6.3L136.44-6.3Q136.44-5.95 136.62-5.75 136.79-5.55 137.09-5.55L137.09-5.55Q137.69-5.55 138.12-6.08 138.54-6.6 138.69-6.6L138.69-6.6Q138.94-6.6 139.09-6.28 139.24-5.95 139.24-5.5L139.24-5.5Q139.29-4.05 138.29-2.68 137.29-1.3 135.37-0.43 133.44 0.45 130.74 0.45L130.74 0.45Q127.44 0.45 125.49-1.07 123.54-2.6 123.49-5.15L123.49-5.15Q123.49-7 124.39-9.3L124.39-9.3 127.14-16.5Q127.39-17.15 127.39-17.55L127.39-17.55Q127.39-18.2 126.97-18.57 126.54-18.95 125.94-18.95L125.94-18.95Q125.09-18.95 124.19-18.2 123.29-17.45 122.59-15.85L122.59-15.85 119.84-6.9Q119.74-6.7 119.74-6.3L119.74-6.3Q119.74-5.95 119.92-5.75 120.09-5.55 120.39-5.55L120.39-5.55Q120.99-5.55 121.42-6.08 121.84-6.6 121.99-6.6L121.99-6.6Q122.24-6.6 122.39-6.28 122.54-5.95 122.54-5.5L122.54-5.5Q122.59-4.05 121.59-2.68 120.59-1.3 118.67-0.43 116.74 0.45 114.04 0.45L114.04 0.45Q110.74 0.45 108.79-1.07 106.84-2.6 106.79-5.15L106.79-5.15Q106.79-7 107.69-9.3L107.69-9.3 110.44-16.5Q110.69-17.15 110.69-17.55L110.69-17.55Q110.69-18.2 110.27-18.57 109.84-18.95 109.24-18.95L109.24-18.95Q108.39-18.95 107.49-18.23 106.59-17.5 105.99-15.9L105.99-15.9 102.69-5.2Q102.49-4.65 102.49-4.15L102.49-4.15Q102.49-3.55 102.74-3.18 102.99-2.8 103.44-2.4L103.44-2.4Q103.79-2.1 103.94-1.85 104.09-1.6 103.99-1.25L103.99-1.25Q103.79-0.6 103.04-0.3 102.29 0 100.69 0L100.69 0 89.29 0Q87.99 0 87.42-0.43 86.84-0.85 86.99-1.55L86.99-1.55Q87.19-2.15 88.04-2.6L88.04-2.6Q88.79-3 89.29-3.55 89.79-4.1 90.14-5.3L90.14-5.3 94.59-19.75Q94.69-20 94.69-20.45L94.69-20.45Q94.69-21 94.47-21.3 94.24-21.6 93.74-22.05L93.74-22.05Q93.24-22.45 93.04-22.75 92.84-23.05 92.99-23.55L92.99-23.55Q93.29-24.7 96.14-25.58 98.99-26.45 102.09-26.45L102.09-26.45Q104.54-26.45 105.97-25.1 107.39-23.75 107.34-21.4L107.34-21.4Q109.39-24.25 111.67-25.35 113.94-26.45 116.59-26.45L116.59-26.45Q119.49-26.45 121.32-24.78 123.14-23.1 123.34-20.4L123.34-20.4Q125.49-23.8 127.94-25.13 130.39-26.45 133.29-26.45L133.29-26.45Q136.34-26.45 138.22-24.6 140.09-22.75 140.09-19.8L140.09-19.8Q140.09-18.25 139.59-16.75L139.59-16.75ZM158.34-26.7Q164.69-26.7 167.54-24.68 170.39-22.65 170.39-19.5L170.39-19.5Q170.39-18.55 170.19-17.75L170.19-17.75Q169.44-14.45 166.02-13.03 162.59-11.6 157.94-11.6L157.94-11.6Q155.59-11.6 153.54-11.9L153.54-11.9Q153.49-9.3 154.94-8.25 156.39-7.2 158.99-7.2L158.99-7.2Q160.19-7.2 161.29-7.48 162.39-7.75 164.09-8.3L164.09-8.3Q165.49-8.8 165.99-8.8L165.99-8.8Q166.54-8.8 166.54-8.15L166.54-8.15Q166.59-6.4 165.24-4.48 163.89-2.55 161.24-1.2 158.59 0.15 154.84 0.15L154.84 0.15Q149.29 0.15 145.74-2.65 142.19-5.45 142.19-10.8L142.19-10.8Q142.19-12.3 142.59-14.3L142.59-14.3Q143.84-20.45 148.07-23.58 152.29-26.7 158.34-26.7L158.34-26.7ZM153.89-14.9Q154.09-14.85 154.44-14.85L154.44-14.85Q156.54-14.85 157.64-16.8 158.74-18.75 158.69-21.15L158.69-21.15Q158.64-22.55 157.89-22.55L157.89-22.55Q157.34-22.55 156.59-21.68 155.84-20.8 155.12-19.05 154.39-17.3 153.89-14.9L153.89-14.9ZM198.09-33.6Q200.89-33.6 203.26-32.93 205.64-32.25 208.09-30.8L208.09-30.8 209.24-31.75Q210.44-32.7 211.21-33.05 211.99-33.4 212.99-33.4L212.99-33.4Q214.19-33.4 214.89-32.88 215.59-32.35 215.59-31.35L215.59-31.35Q215.59-30.95 215.44-30.5L215.44-30.5 213.34-23.6Q212.99-22.4 212.46-21.9 211.94-21.4 210.89-21.4L210.89-21.4Q209.79-21.4 208.96-22.08 208.14-22.75 206.39-24.85L206.39-24.85Q204.64-26.85 203.21-27.68 201.79-28.5 200.29-28.5L200.29-28.5Q199.19-28.5 198.44-27.78 197.69-27.05 197.69-26L197.69-26Q197.69-24.8 198.89-23.78 200.09-22.75 202.64-21.2L202.64-21.2Q205.24-19.65 206.94-18.4 208.64-17.15 209.84-15.3 211.04-13.45 211.04-11.05L211.04-11.05Q211.04-9.5 210.54-7.95L210.54-7.95Q209.34-3.95 205.89-1.88 202.44 0.2 197.84 0.2L197.84 0.2Q194.39 0.2 192.04-0.6 189.69-1.4 187.24-3.3L187.24-3.3 185.44-1.8Q184.19-0.75 183.39-0.38 182.59 0 181.59 0L181.59 0Q180.44 0 179.76-0.55 179.09-1.1 179.09-2.05L179.09-2.05Q179.09-2.55 179.29-3.1L179.29-3.1 181.74-10.55Q182.14-11.85 182.84-12.4 183.54-12.95 184.64-12.95L184.64-12.95Q185.79-12.95 186.71-12.15 187.64-11.35 189.14-9.25L189.14-9.25Q190.74-6.95 192.11-6.05 193.49-5.15 195.39-5.15L195.39-5.15Q196.74-5.15 197.46-5.58 198.19-6 198.49-6.95L198.49-6.95Q198.59-7.2 198.59-7.7L198.59-7.7Q198.59-8.9 197.44-9.9 196.29-10.9 193.89-12.3L193.89-12.3Q191.34-13.85 189.74-15.08 188.14-16.3 186.96-18.15 185.79-20 185.79-22.5L185.79-22.5Q185.79-24.25 186.34-25.95L186.34-25.95Q187.39-29.4 190.64-31.5 193.89-33.6 198.09-33.6L198.09-33.6ZM229.78-36.95Q232.68-36.95 234.06-35.85 235.43-34.75 235.43-32.85L235.43-32.85Q235.43-31.75 235.08-30.7L235.08-30.7 227.23-5.2Q227.08-4.6 227.08-4.15L227.08-4.15Q227.08-3.5 227.33-3.13 227.58-2.75 228.03-2.4L228.03-2.4Q228.38-2.05 228.53-1.83 228.68-1.6 228.58-1.25L228.58-1.25Q228.33-0.6 227.58-0.3 226.83 0 225.28 0L225.28 0 213.88 0Q212.58 0 211.98-0.43 211.38-0.85 211.58-1.55L211.58-1.55Q211.78-2.15 212.63-2.6L212.63-2.6Q213.38-3 213.88-3.55 214.38-4.1 214.73-5.3L214.73-5.3 222.33-30.25Q222.48-30.7 222.48-31L222.48-31Q222.48-31.55 222.21-31.9 221.93-32.25 221.48-32.6L221.48-32.6Q220.98-33 220.76-33.3 220.53-33.6 220.68-34.1L220.68-34.1Q220.98-35.25 223.83-36.1 226.68-36.95 229.78-36.95L229.78-36.95ZM249.98-26.45Q255.73-26.45 259.18-24.33 262.63-22.2 262.63-17.85L262.63-17.85Q262.63-16.2 262.03-14.1L262.03-14.1 259.98-7.2Q259.93-7 259.93-6.7L259.93-6.7Q259.93-5.9 260.58-5.9L260.58-5.9Q261.18-5.9 261.61-6.43 262.03-6.95 262.18-6.95L262.18-6.95Q262.43-6.95 262.61-6.6 262.78-6.25 262.78-5.8L262.78-5.8Q262.83-4.45 261.76-3.05 260.68-1.65 258.88-0.75 257.08 0.15 254.93 0.15L254.93 0.15Q252.33 0.15 250.48-0.8 248.63-1.75 247.93-3.6L247.93-3.6Q246.43-1.8 244.38-0.83 242.33 0.15 239.98 0.15L239.98 0.15Q237.33 0.15 235.53-0.88 233.73-1.9 232.86-3.53 231.98-5.15 231.98-6.95L231.98-6.95Q231.98-7.75 232.13-8.5L232.13-8.5Q232.93-11.95 235.61-13.7 238.28-15.45 241.98-15.45L241.98-15.45Q246.13-15.45 250.13-14.15L250.13-14.15 251.38-17.45Q252.03-19.55 252.03-20.7L252.03-20.7Q251.98-21.9 251.23-22.5 250.48-23.1 248.93-23.1L248.93-23.1Q249.23-22.3 249.23-21.45L249.23-21.45Q249.23-19.6 247.83-18.25 246.43-16.9 243.83-16.9L243.83-16.9Q241.38-16.9 240.01-17.98 238.63-19.05 238.63-20.65L238.63-20.65Q238.63-23.15 241.43-24.8 244.23-26.45 249.98-26.45L249.98-26.45ZM247.18-11.3Q245.78-11.3 244.91-10.23 244.03-9.15 244.03-7.9L244.03-7.9Q244.03-7.1 244.41-6.6 244.78-6.1 245.48-6.1L245.48-6.1Q246.13-6.1 246.91-6.63 247.68-7.15 248.03-8.2L248.03-8.2 249.08-11.15Q248.23-11.3 247.18-11.3L247.18-11.3ZM290.33-26.45Q292.53-26.45 293.85-24.68 295.18-22.9 295.18-19.85L295.18-19.85Q295.18-17.2 294.23-14.15L294.23-14.15Q292.38-8 288.3-2.55 284.23 2.9 278.95 6.2 273.68 9.5 268.43 9.5L268.43 9.5Q265.83 9.5 263.95 8.6 262.08 7.7 261.1 6.2 260.13 4.7 260.13 3L260.13 3Q260.13 2.25 260.38 1.35L260.38 1.35Q260.83-0.05 261.88-0.8 262.93-1.55 264.38-1.55L264.38-1.55Q266.68-1.55 268.15 0.03 269.63 1.6 270.03 4.35L270.03 4.35Q273.23 4.2 275.93 1.6L275.93 1.6Q273.38 1.15 272.15-0.13 270.93-1.4 270.48-4.1L270.48-4.1 268.48-16.35Q268.33-17.3 268.05-17.68 267.78-18.05 267.33-18.05L267.33-18.05Q266.98-18.05 266.5-17.7 266.03-17.35 265.83-17.35L265.83-17.35Q265.43-17.35 265.43-18.2L265.43-18.2Q265.43-18.9 265.68-19.7L265.68-19.7Q266.58-22.55 269.03-24.53 271.48-26.5 274.73-26.5L274.73-26.5Q277.93-26.5 279.45-24.6 280.98-22.7 281.43-18.75L281.43-18.75 282.93-7.75Q283.08-6.5 283.83-6.5L283.83-6.5Q284.73-6.5 285.93-8.13 287.13-9.75 288.28-12.75L288.28-12.75Q286.78-14.1 285.98-15.85 285.18-17.6 285.18-19.6L285.18-19.6Q285.18-21.15 285.58-22.4L285.58-22.4Q286.18-24.4 287.45-25.43 288.73-26.45 290.33-26.45L290.33-26.45ZM311.78-26.7Q318.13-26.7 320.98-24.68 323.83-22.65 323.83-19.5L323.83-19.5Q323.83-18.55 323.63-17.75L323.63-17.75Q322.88-14.45 319.45-13.03 316.03-11.6 311.38-11.6L311.38-11.6Q309.03-11.6 306.98-11.9L306.98-11.9Q306.93-9.3 308.38-8.25 309.83-7.2 312.43-7.2L312.43-7.2Q313.63-7.2 314.73-7.48 315.83-7.75 317.53-8.3L317.53-8.3Q318.93-8.8 319.43-8.8L319.43-8.8Q319.98-8.8 319.98-8.15L319.98-8.15Q320.03-6.4 318.68-4.48 317.33-2.55 314.68-1.2 312.03 0.15 308.28 0.15L308.28 0.15Q302.73 0.15 299.18-2.65 295.63-5.45 295.63-10.8L295.63-10.8Q295.63-12.3 296.03-14.3L296.03-14.3Q297.28-20.45 301.5-23.58 305.73-26.7 311.78-26.7L311.78-26.7ZM307.33-14.9Q307.53-14.85 307.88-14.85L307.88-14.85Q309.98-14.85 311.08-16.8 312.18-18.75 312.13-21.15L312.13-21.15Q312.08-22.55 311.33-22.55L311.33-22.55Q310.78-22.55 310.03-21.68 309.28-20.8 308.55-19.05 307.83-17.3 307.33-14.9L307.33-14.9ZM347.37-26.45Q350.17-26.45 351.85-24.75 353.52-23.05 353.52-20.55L353.52-20.55Q353.52-19.6 353.32-18.8L353.32-18.8Q352.82-16.75 351.42-15.65 350.02-14.55 348.07-14.55L348.07-14.55Q346.17-14.55 345.2-15.45 344.22-16.35 343.47-17.85L343.47-17.85Q343.07-18.7 342.72-19.1 342.37-19.5 341.92-19.5L341.92-19.5Q341.42-19.5 341.05-19.1 340.67-18.7 340.37-17.7L340.37-17.7 336.52-5.2Q336.42-4.95 336.42-4.45L336.42-4.45Q336.42-3.8 336.8-3.38 337.17-2.95 337.82-2.55L337.82-2.55Q338.42-2.15 338.62-1.9 338.82-1.65 338.77-1.25L338.77-1.25Q338.67-0.6 338.05-0.3 337.42 0 335.92 0L335.92 0 323.12 0Q321.82 0 321.25-0.43 320.67-0.85 320.82-1.55L320.82-1.55Q321.02-2.15 321.87-2.6L321.87-2.6Q322.62-3 323.12-3.55 323.62-4.1 323.97-5.3L323.97-5.3 328.42-19.75Q328.52-20 328.52-20.45L328.52-20.45Q328.52-21 328.3-21.3 328.07-21.6 327.57-22.05L327.57-22.05Q327.07-22.45 326.87-22.75 326.67-23.05 326.82-23.55L326.82-23.55Q327.12-24.7 329.97-25.58 332.82-26.45 335.92-26.45L335.92-26.45Q337.97-26.45 339.32-25.53 340.67-24.6 341.07-22.9L341.07-22.9Q343.47-26.45 347.37-26.45L347.37-26.45Z" opacity="1" transform="matrix(1,0,0,1,0,0)" fill="#010c80" class="undefined-text-0" data-fill-palette-color="primary" id="text-0"></path></svg></g></svg></g></svg></g></svg></g></svg></g></svg></g></svg></g></svg></g><defs></defs></svg><rect width="395.52" height="247.2" fill="none" stroke="none" visibility="hidden"></rect></g></svg></g></svg>